HIERARCHY
ROOT Hips
{
	OFFSET 0.000000 0.000000 0.000000
	CHANNELS 6 Xposition Yposition Zposition Zrotation Yrotation Xrotation 
	JOINT LHipJoint
	{
		OFFSET 0.000000 0.000000 0.000000
		CHANNELS 3 Zrotation Yrotation Xrotation
		JOINT LeftUpLeg
		{
			OFFSET 1.363060 -1.794630 0.839290
			CHANNELS 3 Zrotation Yrotation Xrotation
			JOINT LeftLeg
			{
				OFFSET 2.448110 -6.726130 0.000000
				CHANNELS 3 Zrotation Yrotation Xrotation
				JOINT LeftFoot
				{
					OFFSET 2.562200 -7.039590 0.000000
					CHANNELS 3 Zrotation Yrotation Xrotation
					JOINT LeftToeBase
					{
						OFFSET 0.157640 -0.433110 2.322550
						CHANNELS 3 Zrotation Yrotation Xrotation
						End Site
						{
							OFFSET 0.000000 0.000000 0.000000
						}
					}
				}
			}
		}
	}
	JOINT RHipJoint
	{
		OFFSET 0.000000 0.000000 0.000000
		CHANNELS 3 Zrotation Yrotation Xrotation
		JOINT RightUpLeg
		{
			OFFSET -1.305520 -1.794630 0.839290
			CHANNELS 3 Zrotation Yrotation Xrotation
			JOINT RightLeg
			{
				OFFSET -2.542530 -6.985550 0.000000
				CHANNELS 3 Zrotation Yrotation Xrotation
				JOINT RightFoot
				{
					OFFSET -2.568260 -7.056230 0.000000
					CHANNELS 3 Zrotation Yrotation Xrotation
					JOINT RightToeBase
					{
						OFFSET -0.164730 -0.452590 2.363150
						CHANNELS 3 Zrotation Yrotation Xrotation
						End Site
						{
							OFFSET 0.000000 0.000000 0.000000
						}
					}
				}
			}
		}
	}
	JOINT LowerBack
	{
		OFFSET 0.000000 0.000000 0.000000
		CHANNELS 3 Zrotation Yrotation Xrotation
		JOINT Spine
		{
			OFFSET 0.028270 2.035590 -0.193380
			CHANNELS 3 Zrotation Yrotation Xrotation
			JOINT Spine1
			{
				OFFSET 0.056720 2.048850 -0.042750
				CHANNELS 3 Zrotation Yrotation Xrotation
				JOINT Neck
				{
					OFFSET 0.000000 0.000000 0.000000
					CHANNELS 3 Zrotation Yrotation Xrotation
					JOINT Neck1
					{
						OFFSET -0.054170 1.746240 0.172020
						CHANNELS 3 Zrotation Yrotation Xrotation
						JOINT Head
						{
							OFFSET 0.104070 1.761360 -0.123970
							CHANNELS 3 Zrotation Yrotation Xrotation
							End Site
							{
								OFFSET 0.000000 0.000000 0.000000
							}
						}
					}
				}
				JOINT LeftShoulder
				{
					OFFSET 0.000000 0.000000 0.000000
					CHANNELS 3 Zrotation Yrotation Xrotation
					JOINT LeftArm
					{
						OFFSET 3.362410 1.200890 -0.311210
						CHANNELS 3 Zrotation Yrotation Xrotation
						JOINT LeftForeArm
						{
							OFFSET 4.983000 -0.000000 -0.000000
							CHANNELS 3 Zrotation Yrotation Xrotation
							JOINT LeftHand
							{
								OFFSET 3.483560 -0.000000 -0.000000
								CHANNELS 3 Zrotation Yrotation Xrotation
								JOINT LeftFingerBase
								{
									OFFSET 0.000000 0.000000 0.000000
									CHANNELS 3 Zrotation Yrotation Xrotation
									JOINT LeftHandIndex1
									{
										OFFSET 0.715260 -0.000000 -0.000000
										CHANNELS 3 Zrotation Yrotation Xrotation
										End Site
										{
											OFFSET 0.000000 0.000000 0.000000
										}
									}
								}
								JOINT LThumb
								{
									OFFSET 0.000000 0.000000 0.000000
									CHANNELS 3 Zrotation Yrotation Xrotation
									End Site
									{
										OFFSET 0.000000 0.000000 0.000000
									}
								}
							}
						}
					}
				}
				JOINT RightShoulder
				{
					OFFSET 0.000000 0.000000 0.000000
					CHANNELS 3 Zrotation Yrotation Xrotation
					JOINT RightArm
					{
						OFFSET -3.136600 1.374050 -0.404650
						CHANNELS 3 Zrotation Yrotation Xrotation
						JOINT RightForeArm
						{
							OFFSET -5.241900 -0.000000 -0.000000
							CHANNELS 3 Zrotation Yrotation Xrotation
							JOINT RightHand
							{
								OFFSET -3.444170 -0.000000 -0.000000
								CHANNELS 3 Zrotation Yrotation Xrotation
								JOINT RightFingerBase
								{
									OFFSET 0.000000 0.000000 0.000000
									CHANNELS 3 Zrotation Yrotation Xrotation
									JOINT RightHandIndex1
									{
										OFFSET -0.622530 -0.000000 -0.000000
										CHANNELS 3 Zrotation Yrotation Xrotation
										End Site
										{
											OFFSET 0.000000 0.000000 0.000000
										}
									}
								}
								JOINT RThumb
								{
									OFFSET 0.000000 0.000000 0.000000
									CHANNELS 3 Zrotation Yrotation Xrotation
									End Site
									{
										OFFSET 0.000000 0.000000 0.000000
									}
								}
							}
						}
					}
				}
			}
		}
	}
}
MOTION
Frames: 4
Frame Time: 0.033333
1.368723 17.377444 -3.641012 89.749617 -25.169864 -30.251432 -109.990784 -41.648987 59.867205 -1.053699 -1.518184 -37.631529 -47.182773 65.085338 -50.978730 -4.699369 17.475335 33.628944 1.792475 0.471320 -68.221742 40.726033 -7.514737 -99.542348 59.290442 -67.191888 -94.519148 120.286230 -46.946491 -128.136102 1.863304 -25.667920 -7.552376 -0.568820 0.058109 -40.473875 -92.965498 55.946855 -13.882476 -177.162487 71.816105 -174.943643 175.933444 72.588413 176.214623 5.631965 9.314703 10.201576 13.854131 -11.928258 3.156742 0.263204 -0.183066 0.220031 79.567146 60.455508 -17.756199 23.493308 45.185453 -37.754828 -82.079750 35.180922 -153.184156 -1.890797 -45.599419 -5.533053 -59.694071 67.464979 -130.860323 -0.270315 -0.235496 0.251390 0.208900 0.182448 -0.229202 50.233184 62.060364 84.150167 83.401179 18.882484 176.433302 8.768047 -50.771824 48.357218 -6.068534 -5.548447 -1.206742 -48.188584 26.441910 -174.769547 -0.256746 0.206187 -0.203467 -0.172422 -0.233198 -0.214184 
1.273432 17.478953 -2.887594 89.512616 -25.130456 -30.319288 -108.730176 -43.478141 60.098662 -2.228062 -0.799383 -38.481087 -53.862368 66.734235 -52.726918 -2.802776 19.323666 39.640637 2.300480 0.581099 -67.440635 41.371406 -5.467271 -101.441772 56.283380 -67.112213 -94.641919 122.614653 -44.846630 -126.515375 2.048668 -28.478892 -2.154354 -0.754573 0.113610 -39.077507 -93.280954 56.232191 -15.194847 -177.115042 71.202023 -175.747208 170.142742 72.525942 169.518602 5.878116 9.264999 10.254451 10.610846 -12.084001 4.887612 0.186885 -0.217647 0.218837 79.345331 58.237918 -17.297831 29.081073 48.931047 -32.752008 -81.780449 33.160796 -150.410804 -5.011983 -47.034904 -2.040599 -35.800435 67.328981 -100.689345 -0.189016 -0.189978 0.220772 0.222241 0.228816 -0.203268 51.677241 63.984642 86.370058 80.433288 22.029610 173.279992 6.353925 -51.109533 50.898332 -7.107895 -5.184968 -4.523395 -40.070555 25.358907 -168.793205 -0.151029 0.199783 -0.181235 -0.230515 -0.185139 -0.195407 
1.146430 17.594815 -2.206506 90.344957 -24.026507 -31.299890 -107.163593 -44.805754 60.293323 -2.220477 -0.657457 -40.239981 -68.325122 67.964859 -57.934250 -4.072184 21.486416 37.081149 2.510111 0.556435 -64.836596 41.929337 -3.362165 -103.384023 54.037200 -65.556661 -95.409523 124.212635 -43.180304 -124.746448 3.825513 -32.198358 1.762799 -0.873749 0.154151 -37.590763 -94.919561 57.246560 -15.721372 -176.266909 70.148939 -175.001926 169.880927 73.576183 168.222443 4.478788 11.796598 9.729636 12.992371 -15.580677 5.612955 0.196742 -0.155489 0.186697 82.963294 56.453951 -13.995804 34.328626 52.733296 -25.702867 -80.744483 30.451544 -148.867161 -10.073626 -47.547002 3.349435 -16.696469 57.353662 -73.087051 -0.232310 -0.202680 0.224476 0.181650 0.154161 -0.162710 54.543905 64.761348 89.085761 76.024010 26.047458 169.931407 2.768242 -50.165768 54.705626 -6.639640 -0.802540 -4.366123 -27.820036 23.412406 -167.289594 -0.187084 0.183181 -0.106753 -0.086728 -0.178281 -0.205408 
1.000030 17.706015 -1.601857 90.513866 -23.443957 -31.447177 -106.109220 -46.677990 60.897542 0.781550 1.761533 -40.728720 -84.812220 67.075338 -62.474206 -3.164890 21.970485 35.409116 2.630903 0.457906 -60.822022 41.950901 -3.128764 -103.348961 50.499250 -63.241661 -93.880229 124.830237 -42.665797 -125.412148 3.006188 -31.486445 1.181762 -0.868261 0.228484 -35.831899 -97.109604 58.307160 -17.492531 -179.318432 70.110017 -178.166775 169.960959 73.896674 167.972914 3.653815 13.320044 9.939566 15.865038 -13.962795 8.253992 0.174743 -0.222291 0.192095 85.754359 54.045492 -10.652784 41.057017 56.899572 -17.540179 -77.288048 28.387162 -146.269087 -19.278848 -40.943965 11.695416 -7.012380 45.066439 -52.565559 -0.148393 -0.182276 0.183213 0.167877 0.146655 -0.170541 56.644276 64.598951 90.677112 70.615658 31.246561 166.320944 -1.198656 -48.985945 60.226886 -8.130047 1.084199 -1.788399 -20.201549 25.783020 -167.831451 -0.130341 0.214877 -0.137050 -0.164501 -0.143300 -0.134846 
